<?xml version="1.0" encoding="UTF-8"?>
<svg id="Layer_1" data-name="Layer 1" xmlns="http://www.w3.org/2000/svg" viewBox="0 0 194.43 48">
  <defs>
    <style>
      .cls-1 {
        isolation: isolate;
      }

      .cls-2 {
        fill: #fff;
      }
    </style>
  </defs>
  <g class="cls-1">
    <g class="cls-1">
      <path class="cls-2" d="M13.55,46.09c-.69,0-1.03-.42-1.03-1.27,0-1.36.81-4.42,2.44-9.19.06-.19.1-.37.1-.53-2.34,2.74-4.31,4.28-5.89,4.59l-1.17.17c-1.31.24-2.39.36-3.25.36-.69,0-1.3-.1-1.84-.31-.65-.24-1.12-.76-1.39-1.55l-.24-.69v-2.11c.06-.11.12-.36.17-.74.11-1.87.93-4.55,2.46-8.06,1.74-3.89,3.86-7.58,6.38-11.08,2.51-3.49,5.12-6.42,7.84-8.77,2.71-2.35,5.24-3.75,7.58-4.17.05,0,.09,0,.12-.02.1,0,.18-.02.26-.05h.55s.1.03.22.05c.7,0,1.29.33,1.77,1,1.32,1.82,2.05,2.82,2.18,3.01.27.46.41.96.41,1.48,0,.96-.61,2.24-1.84,3.85-.14.22-.23.38-.25.46-.02.08-.06.14-.12.18-.06.04-.28.08-.68.11-.48.05-1.45.18-2.92.38-.21.03-.38.05-.53.05-.3,0-.45-.1-.45-.29,0-.29.49-1.17,1.48-2.66.33-.62.5-1.21.5-1.77,0-.43-.07-.79-.2-1.08-.14-.29-.3-.43-.49-.43l-.14.02c-2.71,1.36-5.25,3.26-7.61,5.72-2.36,2.46-4.43,5.1-6.22,7.92-1.79,2.82-3.19,5.49-4.2,7.99-1.01,2.5-1.52,4.42-1.52,5.74,0,1.08.34,1.63,1.03,1.63,1.12,0,2.99-1.45,5.62-4.36,2.81-3.17,5.23-6.04,7.27-8.61-.65,0-2.03.34-4.12,1.01-1.34.41-2.26.64-2.75.67-.14,0-.26-.01-.35-.04-.09-.02-.2-.04-.32-.04l-.48.05c-.11,0-.17-.06-.17-.17,0-.26.46-1.5,1.39-3.73.08-.11.5-.27,1.26-.48.76-.21,2.64-.63,5.63-1.27,2.36-.46,3.94-.69,4.74-.69.45,0,.77.06.97.19.2.13.4.32.61.57.29.38.71.79,1.27,1.22.33.27.65.54.94.81.3.27.44.51.44.72,0,.14-.1.25-.31.33-1.48.51-2.49.83-3.01.96-.24.08-.48.16-.72.24s-.49.42-.77,1.03c-1.64,3.17-3.08,6.63-4.32,10.36-1.24,3.73-2.08,6.98-2.52,9.74,0,.22.01.38.04.46.02.08.04.16.04.24,0,.14-.11.23-.33.26-.77.08-1.45.2-2.05.35-.6.15-1.1.23-1.5.23Z"/>
      <path class="cls-2" d="M27.54,38.77c-.16,0-.47-.63-.93-1.9-.46-1.27-.69-2.13-.69-2.57,1.08-3.02,1.72-4.75,1.91-5.19.16-.37.24-.61.24-.74-.02-.1-.1-.21-.24-.34-.62-.51-.93-.88-.93-1.1,0-.14.09-.29.26-.46.86-.75,1.48-1.16,1.87-1.24.18-.03.31-.13.39-.3.09-.17.34-.67.75-1.52,1.29-2.63,2.07-4.15,2.32-4.55.08-.11.12-.21.12-.29,0-.1-.57-.66-1.72-1.7-.08-.06-.27-.25-.57-.57-.05-.03-.07-.09-.07-.17,0-.37.7-.83,2.09-1.4,1.4-.57,3.08-1.08,5.06-1.54,2.55-.59,4.72-.88,6.51-.88,2.12,0,3.24.45,3.35,1.36.03.56.05,1.08.05,1.55,0,.88-.08,1.68-.23,2.42-.15.73-.58,1.47-1.28,2.21-.7.74-1.75,1.55-3.13,2.42s-3.33,2.01-5.81,3.43c-.26.16-.42.25-.48.26-.19.1-.38.22-.55.38l3.25.1c1.56.02,2.87.07,3.92.17s1.86.32,2.42.66c.56.34.84.98.84,1.9,0,.77-.2,1.77-.6,3.02-.03.1-.11.2-.23.3-.12.1-.26.15-.42.15s-.34-.11-.55-.33c-.14-.16-.3-.29-.48-.38-.38-.22-1.28-.37-2.7-.43-3.08-.21-5.32-.37-6.72-.5-1.12-.11-1.93-.17-2.44-.17-.43,0-.69.07-.79.22-.1.14-.48,1.17-1.15,3.09-.05.35-.25.85-.6,1.51-.83,1.59-1.51,2.64-2.03,3.13ZM35.51,21.5l1.72-1.08c1.66-.91,3.24-1.95,4.74-3.13-.03-.03-.07-.05-.12-.05-2.25.22-3.59.42-4.02.57-.3.11-.51.28-.62.5-1.15,1.82-1.72,2.85-1.72,3.09l.02.1Z"/>
      <path class="cls-2" d="M60.23,13.36c.16.13.31.25.45.38.73.65,1.19,1.37,1.36,2.15,0,2.52-.34,4.88-1.03,7.07-.69,2.19-1.58,4.18-2.69,5.94-1.11,1.77-2.32,3.29-3.65,4.55-1.32,1.26-2.65,2.22-3.98,2.89-1.33.67-2.53,1.01-3.6,1.01-.4,0-.77-.05-1.1-.14-1.12,1.8-2.29,3.71-3.52,5.72-.06.14-.13.21-.19.21-.05,0-.12-.07-.23-.21-.1-.14-.27-.4-.49-.77-.22-.37-.55-.87-.98-1.51-.02-.05-.02-.1-.02-.14,0-.56.75-2.05,2.25-4.47.3-.48.61-.97.93-1.48-.08-.41-.12-.87-.12-1.36,0-1.44.27-3.12.8-5.05.53-1.93,1.24-3.9,2.13-5.91.89-2.01,1.87-3.87,2.96-5.59,1.08-1.71,2.2-3.11,3.34-4.19,1.14-1.08,2.21-1.62,3.22-1.62.51,0,.99.16,1.44.48.18.13.35.25.53.36.61-1.08,1.15-2.11,1.63-3.06.29-.64.45-.98.5-1.03.08-.11.18-.17.29-.17.4-.05.8-.15,1.2-.3.4-.15.72-.23.96-.23s.37.14.38.43c0,.54-.57,1.9-1.7,4.07-.29.56-.64,1.21-1.05,1.96ZM57.57,18c-.73,1.28-1.56,2.67-2.46,4.19-1.66,2.79-3.7,6.17-6.12,10.14.53-.25,1.23-.88,2.11-1.89,1.2-1.36,2.4-3.06,3.61-5.13,1.21-2.07,2.18-4.22,2.9-6.45.02-.06.02-.15.02-.26,0-.16-.02-.36-.05-.6Z"/>
      <path class="cls-2" d="M59.24,39.2c-.13,0-.22-.11-.28-.34s-.16-.73-.3-1.53c-.1-.56-.14-.96-.14-1.2,0-1.23.67-3.46,2.02-6.71,1.35-3.25,2.57-6.03,3.66-8.34,1.09-2.31,2.12-4.29,3.07-5.92.96-1.63,1.58-2.45,1.87-2.45.91.3,1.72.46,2.44.46.19,0,.35-.02.48-.07.05.14.19.21.42.21s.35.12.35.36.11.38.33.43c.14.05.22.32.22.81,0,.29-.04.84-.13,1.65-.09.81-.17,1.57-.25,2.26-.08.69-.32,1.83-.72,3.41-.4,1.58-.64,2.9-.72,3.95.57-.99,1.95-3.61,4.14-7.87,2.7-5.3,4.11-8.37,4.23-9.24.02-.13.08-.25.18-.36.1-.11.22-.17.35-.17.06,0,.13.02.19.07,1.59,1.4,2.53,2.24,2.8,2.51.32.33.48.63.48.89,0,.24-.1.52-.31.84,0,.08-2.67,5.37-8.02,15.86-2.12,4.18-3.36,6.36-3.71,6.53-.11.06-.52.15-1.22.26-1.45.32-2.46.48-3.01.48-.51,0-.89-.15-1.15-.45-.26-.3-.38-.88-.38-1.72,0-1.58.59-5.19,1.77-10.84h-.07c-2.76,5.58-4.14,8.45-4.14,8.59,0,.05.08.08.23.11.15.03.23.08.23.18,0,.06-.03.16-.1.29-.43.85-.77,1.56-1,2.15-.3.73-.59,1.28-.86,1.63-.4.48-.74.9-1.03,1.27-1.08,1.34-1.72,2.01-1.91,2.01Z"/>
      <path class="cls-2" d="M77.12,39.2c-.13,0-.22-.11-.28-.34s-.16-.73-.3-1.53c-.1-.56-.14-.96-.14-1.2,0-1.23.67-3.46,2.02-6.71,1.35-3.25,2.57-6.03,3.66-8.34,1.09-2.31,2.12-4.29,3.07-5.92.96-1.63,1.58-2.45,1.87-2.45.91.3,1.72.46,2.44.46.19,0,.35-.02.48-.07.05.14.19.21.42.21s.35.12.35.36.11.38.33.43c.14.05.22.32.22.81,0,.29-.04.84-.13,1.65-.09.81-.17,1.57-.25,2.26-.08.69-.32,1.83-.72,3.41-.4,1.58-.64,2.9-.72,3.95.57-.99,1.95-3.61,4.14-7.87,2.7-5.3,4.11-8.37,4.23-9.24.02-.13.08-.25.18-.36.1-.11.22-.17.35-.17.06,0,.13.02.19.07,1.59,1.4,2.53,2.24,2.8,2.51.32.33.48.63.48.89,0,.24-.1.52-.31.84,0,.08-2.67,5.37-8.01,15.86-2.12,4.18-3.36,6.36-3.71,6.53-.11.06-.52.15-1.22.26-1.45.32-2.46.48-3.01.48-.51,0-.89-.15-1.15-.45-.26-.3-.38-.88-.38-1.72,0-1.58.59-5.19,1.77-10.84h-.07c-2.76,5.58-4.14,8.45-4.14,8.59,0,.05.08.08.23.11.15.03.23.08.23.18,0,.06-.03.16-.1.29-.43.85-.77,1.56-1,2.15-.3.73-.59,1.28-.86,1.63-.4.48-.74.9-1.03,1.27-1.08,1.34-1.72,2.01-1.91,2.01Z"/>
      <path class="cls-2" d="M91.14,40.21c-.24,0-.36-.05-.36-.17,0-.22.19-.76.57-1.6l.89-2.25c.08-.21.21-.43.38-.66.18-.23.35-.35.53-.35.06,0,.13.04.2.11.07.07.21.11.42.11.69,0,1.86-.46,3.53-1.36,1.67-.91,3.41-2.01,5.22-3.31,1.81-1.3,3.37-2.6,4.68-3.89.06-.06.1-.13.1-.19,0-.26-.38-.47-1.12-.65-.38-.06-1.51-.1-3.37-.1-2.28,0-3.85-.13-4.71-.39s-1.29-.74-1.29-1.42c0-.57.33-1.62,1-3.13l.67-1.67c.53-1.21,1.53-2.54,3-3.97,1.48-1.44,3.02-2.71,4.63-3.83,2.04-1.42,3.41-2.13,4.12-2.13.19,0,.36.06.49.18.14.12.29.28.47.47.24.35.66.77,1.27,1.27.81.62,1.22,1.03,1.22,1.22,0,.1-.03.2-.1.31-.4.67-.96,1.14-1.7,1.42-.73.28-1.46.48-2.17.61-.71.13-1.22.29-1.54.5-1.85,1.44-3.32,2.74-4.41,3.9s-1.64,1.88-1.64,2.15c0,.08.04.12.12.12,2.54,0,4.16.02,4.88.05.72.03,1.23.14,1.54.31.31.18.63.46.97.86.38.45,1.08,1.1,2.08,1.96.51.45.77.96.77,1.55,0,1.58-1.67,3.65-5.02,6.22-3.68,2.82-7,4.82-9.95,5.98-3.06,1.18-5.18,1.77-6.34,1.77Z"/>
      <path class="cls-2" d="M112.41,37.19c-.1,0-.73-.59-1.91-1.77-.67-.67-1-1.08-1-1.24,0-.1.26-.89.77-2.39,0-.16-.41-.29-1.22-.38-.1,0-.18.02-.26.05-.08.03-.17.05-.26.05-.46,0-.88-1.02-1.24-3.06-.03-.13-.12-.22-.26-.27-.14-.06-.21-.12-.21-.21,0-.02.01-.03.04-.04.02,0,.05-.03.08-.06.03-.03.07-.08.12-.14s.07-.14.07-.24l-.02-.17c-.05-.16-.07-.29-.07-.38,0-.14.05-.22.14-.22.11,0,.23.03.36.08.13.06.25.08.38.08.08,0,.14-.02.19-.07,1.31-1.36,2.89-2.54,4.74-3.56.86-.46,1.42-.88,1.67-1.24l2.25-3.83c3.13-5.49,4.88-8.25,5.26-8.3.92-.3,1.64-.61,2.15-.91.41-.26.73-.38.93-.38.18,0,.26.16.26.48,0,.51-.14,1.44-.41,2.8-.08.62-.91,2.28-2.49,4.98-.19.3-.38.61-.55.93.13-.02,1.2-.57,3.21-1.68,6.94-3.88,10.61-5.81,11.01-5.81.05,0,.08.02.1.05.24.89.44,1.61.6,2.15.25.8.38,1.35.38,1.65,0,.19-.06.33-.17.43-.11.1-.28.2-.49.31-.21.11-.49.27-.83.48l-9.91,5.36c-5.34,2.81-8.26,4.5-8.76,5.07-.89,1.58-1.34,2.43-1.34,2.56,0,.1.12.16.36.19,2.84.81,4.71,1.4,5.62,1.77.69.29,2.15.99,4.4,2.11.65.33.98.63.98.88,0,.16-.08.3-.23.43-.15.13-.4.32-.75.57-.27.21-.53.43-.77.67-.86.96-1.48,1.44-1.84,1.44-.19,0-.31-.23-.36-.7-.03-.25-.1-.46-.2-.63s-.36-.34-.75-.52c-.7-.25-3.35-.98-7.94-2.18-.27.13-.55.66-.85,1.59-.29.93-.47,1.6-.54,2-.11.81-.25,1.22-.43,1.22Z"/>
      <path class="cls-2" d="M139.56,38.27c-.16,0-.28-.2-.36-.6-.43-1.95-.69-3.87-.77-5.77.02-.53.06-1.17.14-1.94.03-.45.05-.8.05-1.05-.11.06-.2.1-.26.1-.1-.02-.18-.09-.26-.21-.22-.27-.49-.42-.79-.46-.19-.02-.42-.02-.67-.02-.85,0-2.02.1-3.52.29-.14.02-.25.07-.31.16-.06.09-.28.59-.65,1.49-.03.06-.05.12-.05.17,0,.13.1.22.29.28.19.06.29.12.29.2,0,.14-.29.44-.88.88-.21.16-.49.39-.84.7-1.12,1.02-1.83,1.53-2.15,1.53-.1,0-.16-.05-.19-.14-.4-1.28-.61-2.29-.63-3.04-.02-.75-.15-1.13-.37-1.15-.22-.02-.33-.05-.33-.1v-.31c.03-.48.05-.88.05-1.22,0-.53-.04-1.06-.12-1.6-.03-.19-.05-.35-.05-.48,0-.22.08-.38.24-.46l1.89-.38c5.06-9.04,9.12-14.4,12.2-16.05.16-.1.32-.14.48-.14.25,0,.87.27,1.84.81l1.63.88c.7.32,1.05.91,1.05,1.77s-.28,2.16-.84,3.95c-1.36,4.37-2.42,9.8-3.18,16.29l-.02.7c0,.49.05,1.01.14,1.55.03.21.05.39.05.55,0,.25-.07.44-.21.55-.96.67-1.64,1.23-2.06,1.68-.37.4-.64.6-.81.6ZM138.94,24.9c.14,0,.27-.17.37-.53.1-.35.27-1.03.49-2.03.27-1.4.8-3.73,1.6-6.99,0-.05,0-.08-.02-.11-.02-.02-.02-.04-.02-.06-2.41,2.76-4.54,5.77-6.39,9.04l1.36-.07c.89,0,1.6.18,2.13.53.19.14.35.21.48.21Z"/>
      <path class="cls-2" d="M160.26,36.47l-.26-.02c-2.66-.41-4-.69-4-.84,0-.06.02-.11.05-.14-.02-.11-.2-.17-.55-.17-.42,0-1.04.07-1.89.21-3.53.37-6.19.55-7.99.55-1.95,0-3.8-.17-5.57-.5-.25-.03-.38-.09-.38-.17,0-.1.1-.26.29-.5.32-.35.78-1.06,1.39-2.13.13-.34.27-.59.43-.77s.58-.26,1.27-.26l.67.02c.35.03.66.05.93.05.57,0,.9-.1.98-.31,0-1.04.33-2.35,1-3.95.67-1.59,1.82-4.03,3.45-7.32,3.68-7.59,5.57-11.5,5.65-11.72.27-.54.44-.81.5-.81.16,0,1.06.39,2.7,1.17.99.49,1.49.84,1.51,1.05,0,.11-.05.21-.14.31-.16.27-.24.58-.24.93l-1.22,2.39c-5.52,10.69-8.28,16.52-8.28,17.49,0,.1.02.14.07.14,3.6-.18,5.6-.26,5.98-.26.46,0,.89.03,1.28.08.39.06.67.23.83.52,1.37,2.22,2.06,3.68,2.06,4.38,0,.32-.17.51-.5.57Z"/>
      <path class="cls-2" d="M172.77,36.47l-.26-.02c-2.66-.41-4-.69-4-.84,0-.06.02-.11.05-.14-.02-.11-.2-.17-.55-.17-.42,0-1.04.07-1.89.21-3.53.37-6.19.55-7.99.55-1.95,0-3.8-.17-5.58-.5-.25-.03-.38-.09-.38-.17,0-.1.1-.26.29-.5.32-.35.78-1.06,1.39-2.13.13-.34.27-.59.43-.77.16-.18.58-.26,1.27-.26l.67.02c.35.03.66.05.93.05.57,0,.9-.1.98-.31,0-1.04.33-2.35,1-3.95.67-1.59,1.82-4.03,3.45-7.32,3.68-7.59,5.57-11.5,5.65-11.72.27-.54.44-.81.5-.81.16,0,1.06.39,2.7,1.17.99.49,1.49.84,1.51,1.05,0,.11-.05.21-.14.31-.16.27-.24.58-.24.93l-1.22,2.39c-5.52,10.69-8.28,16.52-8.28,17.49,0,.1.02.14.07.14,3.6-.18,5.6-.26,5.98-.26.46,0,.89.03,1.28.08.39.06.67.23.83.52,1.37,2.22,2.06,3.68,2.06,4.38,0,.32-.17.51-.5.57Z"/>
      <path class="cls-2" d="M176.67,36.6c-.35,0-.86-.1-1.53-.31-.67-.21-1.36-.51-2.07-.9s-1.32-.84-1.82-1.34c-.5-.5-.76-1.06-.78-1.69.05-1.5.62-3.24,1.72-5.21l.07-.17-.02-.14h-.55c-.84,0-1.27-.1-1.27-.29,0-.16.18-.43.53-.81.16-.16.43-.49.81-.98.73-1.02,1.23-1.59,1.48-1.7l1.15-.33c.3-.1,1.25-1.47,2.85-4.12.08-.08.22-.3.43-.67v-.05c-.43.08-.65.23-.65.46,0,.1-.06.14-.17.14-.32-.03-1.12-.34-2.39-.93-1.42-.65-2.14-1.16-2.15-1.51,0-.1.06-.18.19-.24,2.2-1.05,4.7-1.85,7.49-2.39,3.14-.61,5.87-.91,8.18-.91,2.9,0,4.37.39,4.4,1.17-.03.37-.05.73-.05,1.08.02.54.06,1.03.12,1.45s.1.82.1,1.18c0,.59-.21.88-.65.88-.56,0-1.67-.49-3.33-1.46-.1-.06-.26-.1-.5-.1-.35,0-.77.02-1.27.07-.65.06-1.55.13-2.7.19-.81.03-1.22.18-1.22.45,0,.1.03.23.08.4.06.17.08.43.08.78,0,.25-.06.57-.19.93-.1.27-.18.42-.24.43-.05,0-.11-.02-.18-.07-.07-.05-.17-.09-.3-.12-.08,0-.26.2-.53.6-.22.32-.38.55-.46.69,0,.03.09.05.26.05.4-.05.7-.07.91-.07.35,0,.61.1.78.3.17.2.32.48.47.85.29.64.7,1.31,1.24,2.01.25.33.38.58.38.74s-.27.25-.81.26l-.43-.03c-.97.02-1.93.04-2.88.06-.95.02-1.71.18-2.3.46-.58.28-1.15.9-1.7,1.87-.55.97-1.21,2.45-1.97,4.44l-.02.1c.03.24.25.36.65.36.29,0,.52-.05.69-.14,2.39-1.5,4-2.49,4.83-2.97.59-.34,1.01-.5,1.27-.5.24,0,.37.24.38.72,0,1.26.05,2.16.14,2.7l.02.34c0,.14-.05.28-.14.41-.21.27-1.33,1.01-3.37,2.2-1.36.81-2.38,1.28-3.09,1.39Z"/>
    </g>
  </g>
</svg>